<?xml version="1.0" encoding="utf-8"?>
<!-- Generator: Adobe Illustrator 16.0.0, SVG Export Plug-In . SVG Version: 6.00 Build 0)  -->
<!DOCTYPE svg PUBLIC "-//W3C//DTD SVG 1.1//EN" "http://www.w3.org/Graphics/SVG/1.1/DTD/svg11.dtd">
<svg version="1.1" id="圖層_1" xmlns="http://www.w3.org/2000/svg" xmlns:xlink="http://www.w3.org/1999/xlink" x="0px" y="0px"
	 width="150px" height="79px" viewBox="0 0 150 79" enable-background="new 0 0 150 79" xml:space="preserve">
<g>
	<g>
		<g>
			<g>
				<g>
					<g>
						<path fill="#202020" d="M4.775,60.737c-1.216-0.334-1.995-0.917-2.314-1.73c-0.386-0.977,0.056-1.933,0.206-2.215
							c0.063-0.21,0.254-0.666,0.766-1c0.617-0.407,1.468-0.485,2.526-0.241l0.167,0.067c1.389,0.858,2.443,1.243,4.584,1.078
							c-0.192-0.809-0.337-1.573-0.437-2.301c-0.329,0.111-0.76,0.185-1.24,0.097c-0.783-0.15-1.465-0.681-2.008-1.558
							c-2.664-3.798,1.078-9.013,1.268-9.271c0.014-0.018,1.556-1.836,1.556-4.198c-0.03-2.31-1.709-3.241-4.03-4.531
							c-0.723-0.403-1.474-0.817-2.296-1.361c-3.312-2.884-2.163-6.11-2.112-6.247l0.127-0.338l0.36-0.022
							c0.071-0.002,1.699-0.116,1.845-1.285c0.274-2.175,2.464-3.383,2.561-3.437c0.004-0.001,0.445-0.245,0.542-0.65
							c0.056-0.244-0.026-0.534-0.25-0.855C5.48,19.134,6.49,17.88,6.972,17.532l0.258-0.184l0.289,0.125
							c0.36,0.16,8.908,3.963,13.182,12.133c3.908,7.477,12.11,20.299,12.166,20.389c0.04,0.051,4.108,5.246,7.852,5.084
							c3.723-0.167,5.227-2.964,5.312-3.121c0.122-0.193,1.234-1.913,2.644-2.076c0.58-0.065,1.138,0.145,1.6,0.607
							c1.83,1.83,0.162,4.832,0.049,5.021c-0.127,0.169-3.208,4.164-8.624,4.763c-3.981,0.438-8.135-1.08-12.334-4.521
							c-1.425,1.421-6.841,6.104-16.283,6.104C10.592,61.856,7.823,61.532,4.775,60.737z M29.679,54.57
							c4.091,3.469,8.087,5.02,11.884,4.604c4.921-0.536,7.829-4.272,7.835-4.272l0,0c0.014-0.021,1.326-2.395,0.092-3.629
							c-0.294-0.294-0.535-0.306-0.688-0.288c-0.746,0.085-1.594,1.185-1.807,1.519c-0.074,0.146-1.843,3.488-6.227,3.682
							c-4.356,0.178-8.602-5.281-8.808-5.553c-0.083-0.13-8.31-12.99-12.242-20.511c-3.626-6.935-10.701-10.69-12.312-11.473
							c-0.208,0.272-0.386,0.758,0.102,1.456c0.414,0.599,0.555,1.188,0.414,1.758c-0.214,0.878-1.01,1.317-1.092,1.36
							c-0.018,0.009-1.781,0.993-1.984,2.597c-0.181,1.447-1.531,2.042-2.479,2.207c-0.161,0.768-0.32,2.796,1.824,4.665
							c0.727,0.475,1.461,0.883,2.167,1.275c2.346,1.301,4.56,2.532,4.6,5.491c0,2.779-1.75,4.847-1.797,4.896
							c-0.034,0.048-3.437,4.797-1.211,7.971c0.386,0.622,0.817,0.982,1.278,1.074c0.398,0.08,0.748-0.06,0.923-0.15
							c-0.454-6,2.311-9.063,4.339-9.989l0.46,1.009c-0.234,0.108-5.699,2.731-3.007,12.775l0.167,0.621l-0.641,0.073
							c-2.831,0.319-4.209-0.126-5.847-1.126c-1.642-0.355-1.875,0.418-1.895,0.493l-0.074,0.19
							c-0.003,0.007-0.405,0.687-0.163,1.306c0.186,0.47,0.716,0.832,1.569,1.064c15.882,4.149,23.757-4.938,23.833-5.028
							l0.359-0.428L29.679,54.57z"/>
					</g>
					<g>
						<path fill="#060001" d="M4.727,60.911c-1.272-0.349-2.092-0.967-2.435-1.839c-0.414-1.049,0.061-2.075,0.201-2.332
							c0.08-0.259,0.292-0.741,0.841-1.104c0.656-0.428,1.514-0.532,2.695-0.254l0.194,0.08c1.301,0.807,2.307,1.188,4.264,1.066
							c-0.153-0.651-0.274-1.288-0.363-1.899C9.752,54.725,9.37,54.736,9,54.669c-0.836-0.158-1.552-0.711-2.123-1.63
							c-2.756-3.93,1.104-9.258,1.279-9.493c0.015-0.018,1.512-1.788,1.512-4.079c-0.03-2.203-1.667-3.114-3.96-4.388
							c-0.72-0.4-1.464-0.813-2.303-1.368c-3.4-2.96-2.215-6.307-2.163-6.448l0.17-0.449l0.479-0.029
							c0.015,0,1.543-0.091,1.673-1.126c0.287-2.279,2.559-3.522,2.654-3.574c0.004-0.002,0.376-0.211,0.453-0.532
							c0.044-0.191-0.032-0.437-0.223-0.71c-1.202-1.722-0.106-3.08,0.418-3.458l0.341-0.245l0.384,0.169
							c0.365,0.159,8.965,3.984,13.27,12.216c3.555,6.8,10.709,18.095,12.107,20.291l0.043,0.071
							c0.04,0.051,3.942,5.016,7.534,5.016c0.055,0,0.11,0,0.166-0.003c3.529-0.16,5.002-2.732,5.166-3.037
							c0.207-0.33,1.322-1.993,2.777-2.157c0.642-0.083,1.25,0.156,1.748,0.656c1.992,1.99,0.097,5.209,0.068,5.258
							c-0.13,0.174-3.243,4.228-8.75,4.836c-3.988,0.435-8.158-1.067-12.344-4.458c-1.607,1.563-7.031,6.043-16.294,6.043
							C10.405,62.039,7.594,61.659,4.727,60.911z M29.48,55.611c4.149,3.4,8.27,4.909,12.2,4.482
							c5.353-0.59,8.373-4.526,8.488-4.676c0.019-0.033,1.743-3.036-0.022-4.802c-0.418-0.419-0.923-0.612-1.45-0.551
							c-1.318,0.149-2.393,1.8-2.505,1.979c-0.166,0.311-1.733,3.049-5.463,3.217c-0.062,0.001-0.121,0.003-0.182,0.003
							c-3.812,0-7.783-5.107-7.831-5.173l-0.051-0.081c-1.4-2.198-8.562-13.506-12.122-20.317
							C16.294,21.571,7.806,17.797,7.446,17.642l-0.194-0.085L7.08,17.68c-0.444,0.319-1.368,1.473-0.333,2.954
							C7,20.999,7.094,21.335,7.023,21.635c-0.116,0.49-0.631,0.769-0.632,0.769c-0.089,0.049-2.202,1.205-2.465,3.299
							c-0.167,1.333-1.997,1.442-2.014,1.443l-0.244,0.016L1.582,27.39c-0.048,0.131-1.151,3.249,2.042,6.033
							c0.807,0.533,1.546,0.943,2.287,1.356c2.375,1.315,4.088,2.27,4.121,4.687c0,2.431-1.585,4.301-1.593,4.306
							c-0.158,0.216-3.872,5.34-1.259,9.068c0.522,0.839,1.157,1.335,1.889,1.473c0.376,0.072,0.769,0.039,1.148-0.088l0.208-0.071
							l0.029,0.219c0.098,0.728,0.246,1.493,0.434,2.282l0.05,0.207l-0.213,0.016c-2.207,0.169-3.288-0.234-4.667-1.092l-0.139-0.06
							c-1.005-0.23-1.815-0.157-2.387,0.216c-0.454,0.3-0.628,0.692-0.706,0.938c-0.136,0.254-0.554,1.156-0.199,2.06
							c0.3,0.76,1.037,1.305,2.193,1.622c2.834,0.739,5.614,1.115,8.261,1.115c9.362,0,14.732-4.633,16.153-6.051l0.117-0.117
							L29.48,55.611z M5.014,59.841C4.1,59.59,3.531,59.195,3.324,58.668c-0.255-0.649,0.099-1.33,0.163-1.438l0.066-0.171
							c0.031-0.118,0.24-0.724,1.296-0.724c0.243,0,0.517,0.035,0.812,0.096l0.057,0.023c1.55,0.946,2.939,1.418,5.733,1.101
							l0.431-0.048l-0.114-0.418c-2.506-9.347,1.999-12.381,2.947-12.904l-0.313-0.682c-2.173,1.092-4.484,4.25-4.071,9.732
							l0.01,0.119l-0.108,0.052c-0.222,0.117-0.645,0.254-1.042,0.169C8.68,53.474,8.21,53.086,7.8,52.43
							c-2.307-3.293,1.181-8.137,1.228-8.196c0.017-0.02,1.75-2.062,1.75-4.773c-0.039-2.855-2.208-4.06-4.506-5.336
							c-0.709-0.394-1.444-0.801-2.199-1.295c-2.209-1.93-2.054-4.028-1.884-4.842l0.026-0.119l0.122-0.021
							c0.497-0.088,2.134-0.491,2.329-2.052c0.216-1.707,2.06-2.723,2.08-2.733c0.083-0.044,0.807-0.448,1.001-1.242
							c0.127-0.516-0.004-1.059-0.389-1.612c-0.57-0.82-0.305-1.398-0.096-1.672l0.09-0.118l0.133,0.066
							c1.425,0.693,8.71,4.508,12.395,11.553c3.9,7.464,12.153,20.373,12.226,20.483c0.041,0.056,4.195,5.488,8.456,5.488
							c0.001,0,0.001,0,0.003,0c0.065,0,0.13-0.001,0.196-0.005c4.295-0.189,6.001-3.443,6.082-3.597
							c0.008-0.016,0.976-1.492,1.94-1.604c0.031-0.003,0.068-0.005,0.107-0.005c0.258,0,0.498,0.113,0.729,0.347
							c1.334,1.332-0.051,3.829-0.066,3.853L49.5,55.084h-0.017c-0.621,0.741-3.424,3.783-7.901,4.271
							c-0.407,0.042-0.823,0.065-1.234,0.065l0,0c-3.467,0-7.098-1.585-10.785-4.713l-0.287-0.241l-0.241,0.288
							c-0.052,0.062-5.39,6.178-15.95,6.178C10.501,60.933,7.786,60.563,5.014,59.841z M29.798,54.434
							c4.048,3.432,8.013,4.973,11.744,4.561c4.549-0.496,7.396-3.817,7.705-4.194v-0.001c0.097-0.176,1.207-2.307,0.114-3.398
							c-0.162-0.16-0.314-0.238-0.472-0.238c-0.025,0-0.047,0-0.067,0.002c-0.613,0.071-1.407,1.016-1.665,1.421
							c-0.076,0.148-1.876,3.582-6.38,3.782c-0.071,0.004-0.143,0.005-0.213,0.005c-0.002,0-0.002,0-0.003,0
							c-4.44,0-8.702-5.576-8.752-5.642c-0.079-0.125-8.343-13.048-12.252-20.524C16.036,23.471,9.165,19.727,7.47,18.881
							c-0.172,0.32-0.109,0.694,0.186,1.121c0.446,0.642,0.595,1.283,0.444,1.905c-0.233,0.948-1.088,1.426-1.182,1.476
							c-0.017,0.01-1.702,0.954-1.893,2.459c-0.211,1.69-1.835,2.2-2.502,2.339c-0.145,0.822-0.179,2.659,1.767,4.359
							c0.725,0.473,1.453,0.878,2.156,1.268c2.393,1.328,4.653,2.582,4.694,5.65c0,2.866-1.824,4.996-1.831,5.004
							c-0.034,0.045-3.362,4.689-1.206,7.768c0.36,0.576,0.75,0.911,1.161,0.992c0.25,0.05,0.519-0.008,0.698-0.084
							c-0.394-5.727,2.146-8.988,4.454-10.042l0.164-0.075l0.613,1.34l-0.165,0.073c-0.23,0.105-5.563,2.667-2.908,12.564
							l0.221,0.825l-0.851,0.095c-2.881,0.324-4.334-0.163-5.934-1.136C5.296,56.728,5.06,56.7,4.85,56.7
							c-0.806,0-0.933,0.404-0.95,0.471l-0.087,0.216c-0.035,0.064-0.35,0.641-0.151,1.148c0.164,0.414,0.651,0.736,1.447,0.952
							c2.74,0.718,5.424,1.082,7.976,1.082c10.396,0,15.621-5.989,15.672-6.049l0.477-0.566L29.798,54.434z"/>
					</g>
				</g>
			</g>
		</g>
		<g>
			<g>
				<g>
					<g>
						<path fill="#202020" d="M35.159,52.96c0,0-4.999,2.249-3.171,4.034c1.727,1.689,5.425,2.718,5.425,2.718h4.998l5.221-2.408
							l2.836-3.705l-0.586-2.718h-1.412l-1.968,1.37l-2.221,2.368l-2.215,0.676h-2.244l-2.299-0.512L35.159,52.96z"/>
					</g>
				</g>
			</g>
		</g>
		<g>
			<g>
				<g>
					<g>
						<path fill="#202020" d="M5.416,23.715l0.291-0.296l1.617-1.509l-0.272-1.486l-0.406-1.245l0.865-1.195l2.939,1.647
							l6.695,5.563C17.145,25.193,12.916,26.942,5.416,23.715z"/>
					</g>
				</g>
			</g>
		</g>
	</g>
	<g>
		<g>
			<g>
				<g>
					<path fill="#202020" d="M46.424,38.915c0.348,0,0.63-0.276,0.639-0.625c0.006-0.351-0.272-0.642-0.625-0.648l-5.103-0.102
						c-0.307,0.001-0.644,0.272-0.651,0.625c-0.008,0.351,0.274,0.643,0.625,0.648l5.104,0.102
						C46.417,38.915,46.422,38.915,46.424,38.915z"/>
				</g>
				<g>
					<path fill="#202020" d="M41.307,38.996c-0.452-0.011-0.813-0.385-0.805-0.836c0.01-0.471,0.446-0.8,0.836-0.801l5.104,0.101
						c0.218,0.004,0.423,0.093,0.573,0.25c0.153,0.158,0.232,0.365,0.229,0.584c-0.01,0.442-0.377,0.803-0.82,0.803h-0.014
						L41.307,38.996z M40.866,38.169c-0.004,0.249,0.197,0.46,0.447,0.463l5.104,0.102l-0.002,0.182l0.011-0.182
						c0.251,0,0.452-0.196,0.457-0.444c0.003-0.123-0.042-0.239-0.128-0.327c-0.085-0.088-0.198-0.137-0.318-0.139l-5.1-0.102
						C41.123,37.723,40.872,37.918,40.866,38.169z"/>
				</g>
			</g>
		</g>
	</g>
	<g>
		<g>
			<g>
				<g>
					<path fill="#202020" d="M31.897,22.033c0.241,0,0.472-0.136,0.579-0.373l2.125-4.641c0.147-0.321,0.006-0.698-0.314-0.846
						c-0.319-0.144-0.699-0.006-0.843,0.315l-2.125,4.641c-0.147,0.321-0.005,0.699,0.313,0.846
						C31.719,22.015,31.809,22.033,31.897,22.033z"/>
				</g>
				<g>
					<path fill="#202020" d="M31.556,22.14c-0.198-0.091-0.351-0.253-0.426-0.458c-0.076-0.205-0.069-0.427,0.022-0.627l2.125-4.641
						c0.181-0.396,0.685-0.588,1.085-0.404c0.199,0.091,0.351,0.254,0.426,0.461c0.076,0.203,0.068,0.428-0.022,0.626l-2.125,4.64
						c-0.131,0.291-0.423,0.478-0.744,0.478C31.781,22.214,31.665,22.188,31.556,22.14z M33.607,16.566l-2.125,4.641
						c-0.051,0.11-0.055,0.233-0.013,0.349c0.042,0.113,0.126,0.205,0.237,0.254c0.229,0.104,0.504-0.004,0.604-0.226l2.125-4.641
						c0.051-0.11,0.054-0.232,0.011-0.348c-0.041-0.115-0.125-0.206-0.236-0.255c-0.063-0.028-0.124-0.042-0.189-0.042
						C33.843,16.299,33.681,16.402,33.607,16.566z"/>
				</g>
			</g>
		</g>
	</g>
	<g>
		<g>
			<g>
				<g>
					<path fill="#202020" d="M39.38,29.568c0.108,0,0.216-0.027,0.318-0.086l4.296-2.479c0.306-0.174,0.409-0.564,0.234-0.867
						c-0.176-0.308-0.566-0.412-0.871-0.235l-4.297,2.478c-0.304,0.177-0.409,0.565-0.233,0.872
						C38.946,29.454,39.16,29.568,39.38,29.568z"/>
				</g>
				<g>
					<path fill="#202020" d="M38.672,29.341c-0.111-0.19-0.14-0.412-0.083-0.621c0.056-0.213,0.192-0.389,0.381-0.498l4.296-2.479
						c0.376-0.22,0.901-0.077,1.118,0.302c0.226,0.391,0.091,0.893-0.3,1.117l-4.296,2.478c-0.125,0.072-0.266,0.109-0.409,0.109
						C39.088,29.749,38.817,29.594,38.672,29.341z M43.449,26.059l-4.296,2.477c-0.106,0.063-0.182,0.16-0.213,0.277
						c-0.032,0.116-0.016,0.239,0.047,0.347c0.119,0.207,0.405,0.29,0.622,0.165l4.297-2.477c0.216-0.126,0.292-0.405,0.166-0.621
						c-0.08-0.143-0.233-0.23-0.396-0.23C43.596,25.996,43.517,26.019,43.449,26.059z"/>
				</g>
			</g>
		</g>
	</g>
	<g>
		<g>
			<g>
				<g>
					<path fill="#202020" d="M41.138,34.097c0.04,0,0.081-0.005,0.12-0.014l3.056-0.586c0.344-0.068,0.57-0.4,0.505-0.746
						c-0.069-0.347-0.406-0.567-0.746-0.505l-3.056,0.586c-0.346,0.067-0.57,0.402-0.505,0.747
						C40.572,33.885,40.839,34.097,41.138,34.097z"/>
				</g>
				<g>
					<path fill="#202020" d="M40.333,33.612c-0.084-0.441,0.208-0.873,0.65-0.958l3.055-0.587c0.46-0.079,0.874,0.218,0.958,0.649
						c0.086,0.442-0.206,0.87-0.648,0.959l-3.056,0.587c-0.05,0.009-0.104,0.016-0.154,0.016
						C40.748,34.278,40.411,33.999,40.333,33.612z M44.107,32.423l-3.055,0.589c-0.245,0.046-0.409,0.285-0.36,0.534
						c0.045,0.241,0.278,0.414,0.533,0.36l3.054-0.589c0.247-0.048,0.409-0.286,0.362-0.533c-0.043-0.213-0.233-0.368-0.454-0.368
						C44.159,32.416,44.132,32.418,44.107,32.423z"/>
				</g>
			</g>
		</g>
	</g>
	<g>
		<g>
			<g>
				<g>
					<path fill="#202020" d="M43.431,44.695c0.23,0,0.455-0.125,0.567-0.345c0.16-0.312,0.038-0.698-0.274-0.858l-2.765-1.424
						c-0.315-0.157-0.698-0.037-0.86,0.276c-0.159,0.312-0.036,0.697,0.275,0.855l2.766,1.425
						C43.233,44.674,43.332,44.695,43.431,44.695z"/>
				</g>
				<g>
					<path fill="#202020" d="M43.058,44.787l-2.766-1.425c-0.4-0.204-0.559-0.7-0.354-1.099c0.201-0.39,0.708-0.556,1.103-0.355
						l2.766,1.422c0.194,0.102,0.338,0.271,0.404,0.478c0.066,0.21,0.05,0.432-0.051,0.625c-0.139,0.273-0.418,0.444-0.729,0.444
						C43.3,44.877,43.171,44.846,43.058,44.787z M40.26,42.427c-0.114,0.225-0.025,0.5,0.197,0.612l2.767,1.425
						c0.213,0.11,0.502,0.019,0.611-0.198c0.056-0.105,0.067-0.23,0.03-0.347c-0.039-0.116-0.118-0.21-0.226-0.266l-2.764-1.423
						c-0.067-0.033-0.137-0.051-0.21-0.051C40.495,42.18,40.34,42.274,40.26,42.427z"/>
				</g>
			</g>
		</g>
	</g>
	<g>
		<g>
			<g>
				<g>
					<path fill="#202020" d="M26.991,19.896c0.316,0,0.591-0.234,0.631-0.558l0.38-3.087c0.042-0.35-0.208-0.666-0.556-0.71
						c-0.347-0.044-0.667,0.206-0.709,0.555l-0.38,3.085c-0.042,0.351,0.207,0.668,0.556,0.71
						C26.938,19.896,26.964,19.896,26.991,19.896z"/>
				</g>
				<g>
					<path fill="#202020" d="M26.89,20.072c-0.449-0.053-0.768-0.464-0.712-0.912l0.377-3.087c0.057-0.442,0.475-0.775,0.914-0.712
						c0.448,0.054,0.767,0.465,0.711,0.913l-0.378,3.087c-0.05,0.408-0.399,0.717-0.812,0.717
						C26.955,20.078,26.921,20.077,26.89,20.072z M26.915,16.118l-0.376,3.086c-0.032,0.251,0.147,0.478,0.396,0.509
						c0.256,0.029,0.477-0.152,0.507-0.398l0.379-3.087c0.031-0.249-0.148-0.476-0.398-0.507c-0.019-0.003-0.036-0.003-0.056-0.003
						C27.14,15.718,26.945,15.89,26.915,16.118z"/>
				</g>
			</g>
		</g>
	</g>
	<g>
		<g>
			<g>
				<g>
					<path fill="#202020" d="M36.242,24.762c0.16,0,0.321-0.06,0.445-0.181l2.157-2.117c0.253-0.246,0.256-0.649,0.009-0.899
						c-0.246-0.252-0.649-0.255-0.899-0.009l-2.159,2.115c-0.251,0.245-0.255,0.65-0.009,0.901
						C35.912,24.699,36.076,24.762,36.242,24.762z"/>
				</g>
				<g>
					<path fill="#202020" d="M35.656,24.699c-0.153-0.156-0.236-0.363-0.233-0.582c0.002-0.217,0.089-0.421,0.245-0.575l2.158-2.116
						c0.312-0.305,0.851-0.301,1.158,0.01c0.153,0.157,0.235,0.361,0.235,0.581c-0.003,0.22-0.091,0.424-0.247,0.578l-2.159,2.116
						c-0.152,0.151-0.357,0.232-0.571,0.232C36.02,24.943,35.812,24.857,35.656,24.699z M38.082,21.685L35.922,23.8
						c-0.088,0.085-0.136,0.2-0.136,0.321c-0.002,0.122,0.044,0.237,0.131,0.323c0.167,0.174,0.468,0.18,0.644,0.006l2.157-2.116
						c0.086-0.084,0.135-0.198,0.137-0.319c0-0.123-0.045-0.237-0.132-0.323c-0.086-0.088-0.203-0.136-0.325-0.136
						C38.28,21.556,38.167,21.602,38.082,21.685z"/>
				</g>
			</g>
		</g>
	</g>
	<g>
		<g>
			<g>
				<g>
					<path fill="#202020" d="M35.517,46.558c0.23,0,0.45-0.125,0.562-0.343c1.243-2.432,1.872-5.037,1.872-7.745
						c0-9.411-7.657-17.066-17.066-17.066c-0.347,0-0.63,0.283-0.63,0.629c0,0.349,0.283,0.629,0.63,0.629
						c8.716,0,15.808,7.091,15.808,15.808c0,2.506-0.585,4.919-1.734,7.171c-0.158,0.31-0.036,0.69,0.272,0.848
						C35.323,46.534,35.42,46.558,35.517,46.558z"/>
				</g>
				<g>
					<path fill="#202020" d="M35.148,46.65c-0.397-0.203-0.556-0.692-0.352-1.092c1.138-2.229,1.713-4.613,1.713-7.089
						c0-8.616-7.01-15.626-15.625-15.626c-0.447,0-0.812-0.363-0.812-0.811c0-0.445,0.364-0.811,0.812-0.811
						c9.511,0,17.248,7.738,17.248,17.248c0,2.738-0.638,5.369-1.892,7.826c-0.139,0.273-0.417,0.444-0.724,0.444
						C35.389,46.74,35.262,46.707,35.148,46.65z M20.436,22.033c0,0.247,0.201,0.447,0.448,0.447
						c8.817,0,15.988,7.172,15.988,15.989c0,2.533-0.59,4.976-1.753,7.255c-0.113,0.221-0.025,0.49,0.196,0.603
						c0.208,0.111,0.49,0.02,0.601-0.196c1.229-2.404,1.852-4.983,1.852-7.661c0-9.311-7.574-16.883-16.885-16.883
						C20.637,21.586,20.436,21.786,20.436,22.033z"/>
				</g>
			</g>
		</g>
	</g>
</g>
<g enable-background="new    ">
	<path fill="#202020" d="M71.099,25.02c0.931,0.232,1.626,1.084,1.626,2.091c0,0.853-0.773,1.473-1.626,1.239l-2.827-0.697
		c-0.931-0.271-1.588-1.084-1.588-2.092c0-0.891,0.775-1.471,1.588-1.277L71.099,25.02z M71.099,34.082
		c0.931,0.271,1.626,1.123,1.626,2.13c0,0.892-0.773,1.473-1.626,1.24l-2.79-0.736c-0.968-0.271-1.625-1.123-1.625-2.169
		c0-0.852,0.775-1.472,1.625-1.24L71.099,34.082z M68.776,55.81c-0.892,0-1.512-0.813-1.356-1.665l1.704-8.56
		c0.194-0.93,1.006-1.665,2.014-1.665c0.93,0,1.55,0.774,1.355,1.665l-1.664,8.56C70.635,55.074,69.783,55.81,68.776,55.81z
		 M97.127,44.888c0.774,0,1.085,1.046,0.386,1.433l-3.021,2.054c-0.347,0.231-0.463,0.852-0.27,1.239l2.788,4.88
		c0.427,0.736-0.116,1.588-0.93,1.588c-1.199,0-2.207-0.658-2.789-1.626l-6.546-11.62c-0.231-0.465-0.735-0.736-1.2-0.736h-3.29
		c-0.427,0-0.853,0.427-0.853,0.854v7.513c0,0.387,0.426,0.736,0.812,0.658l2.362-0.542c0.814-0.193,1.552,0.388,1.552,1.24
		c0,0.968-0.659,1.781-1.552,2.014l-3.717,0.891c-1.394,0.31-2.672-0.659-2.672-2.092V28.621c0-1.549,1.162-2.712,2.749-2.712h3.719
		c0.311,0,0.658-0.349,0.658-0.658v-0.503c0-0.892,0.696-1.588,1.626-1.588c0.931,0,1.589,0.696,1.589,1.588v0.503
		c0,0.309,0.348,0.658,0.658,0.658h3.834c1.55,0,2.75,1.163,2.75,2.712v10.767c0,1.55-1.2,2.711-2.75,2.711h-2.092
		c-0.388,0-0.618,0.466-0.464,0.774l1.548,2.751c0.116,0.271,0.465,0.348,0.736,0.193c0.815-0.581,1.858-0.93,2.905-0.93H97.127z
		 M92.555,29.977c0-0.465-0.426-0.892-0.852-0.892h-9.448c-0.427,0-0.853,0.427-0.853,0.892v1.627c0,0.427,0.426,0.813,0.853,0.813
		h9.448c0.426,0,0.852-0.387,0.852-0.813V29.977z M82.255,35.67c-0.427,0-0.853,0.427-0.853,0.813v1.627
		c0,0.427,0.426,0.813,0.853,0.813h9.448c0.426,0,0.852-0.387,0.852-0.813v-1.627c0-0.386-0.426-0.813-0.852-0.813H82.255z"/>
	<path fill="#202020" d="M125.851,51.665c0.35,0.35,0.814,0.543,1.278,0.543h19.831c0.891,0,1.626,0.697,1.626,1.627
		c0,0.891-0.735,1.627-1.626,1.627h-19.093c-1.823,0-3.565-0.736-4.804-2.015l-1.087-1.046c-0.309-0.31-0.773-0.349-1.122-0.115
		l-3.678,2.749c-0.698,0.504-1.667,0.039-1.667-0.852c0-1.317,0.62-2.519,1.667-3.332l2.206-1.588
		c0.35-0.271,0.584-0.734,0.584-1.199v-7.708c0-0.427-0.311-0.736-0.737-0.736h-2.13c-0.891,0-1.59-0.736-1.59-1.626
		c0-0.891,0.699-1.588,1.59-1.588h3.291c1.549,0,2.789,1.239,2.789,2.787v9.104c0,0.504,0.193,0.967,0.542,1.278L125.851,51.665z
		 M121.436,30.248c0.272,0.813-0.348,1.665-1.201,1.665c-1.044,0-2.014-0.658-2.322-1.665l-0.389-1.123
		c-0.271-0.813,0.349-1.666,1.24-1.666c1.046,0,1.977,0.658,2.324,1.666L121.436,30.248z M132.318,33.191
		c-0.968,0-1.743-0.774-1.743-1.782c0-0.232-0.23-0.466-0.463-0.466h-1.782c-0.928,0-1.354-1.16-0.619-1.741l6.586-5.268
		c1.276-1.046,3.095-1.084,4.453-0.078l7.319,5.5c0.658,0.503,0.311,1.587-0.542,1.587h-2.441c-0.153,0-0.31-0.037-0.426-0.114
		c-0.038-0.039-0.038,0-0.038,0v0.465c0,1.046-0.852,1.897-1.937,1.897h-1.82c-0.387,0-0.736,0.349-0.736,0.736v1.433
		c0,0.388,0.35,0.736,0.736,0.736h5.771c0.892,0,1.588,0.736,1.588,1.588c0,0.89-0.696,1.588-1.588,1.588h-5.771
		c-0.387,0-0.736,0.348-0.736,0.735v8.366c0,0.89-0.737,1.626-1.588,1.626c-0.892,0-1.627-0.736-1.627-1.626v-8.366
		c0-0.388-0.349-0.735-0.735-0.735h-5.771c-0.889,0-1.589-0.698-1.589-1.588c0-0.852,0.7-1.588,1.589-1.588h5.771
		c0.387,0,0.735-0.349,0.735-0.736v-1.433c0-0.388-0.349-0.736-0.735-0.736H132.318z M130.501,46.128
		c-0.313,1.006-1.24,1.665-2.287,1.665c-0.853,0-1.472-0.852-1.2-1.665l0.657-2.17c0.311-1.006,1.241-1.704,2.325-1.704
		c0.854,0,1.472,0.853,1.201,1.704L130.501,46.128z M137.123,26.646c-0.348-0.271-0.854-0.271-1.201,0l-3.641,2.904
		c-0.195,0.154-0.079,0.465,0.193,0.465h8.442c0.232,0,0.349-0.311,0.155-0.427L137.123,26.646z M142.196,43.958
		c-0.311-0.852,0.311-1.704,1.161-1.704c1.047,0,2.016,0.698,2.365,1.666l0.811,2.208c0.273,0.813-0.31,1.665-1.2,1.665
		c-1.084,0-2.052-0.698-2.4-1.705L142.196,43.958z"/>
</g>
</svg>
